<?xml version="1.0" encoding="UTF-8" standalone="no"?>
<!-- Created with Inkscape (http://www.inkscape.org/) -->

<svg
   xmlns:dc="http://purl.org/dc/elements/1.1/"
   xmlns:cc="http://creativecommons.org/ns#"
   xmlns:rdf="http://www.w3.org/1999/02/22-rdf-syntax-ns#"
   xmlns:svg="http://www.w3.org/2000/svg"
   xmlns="http://www.w3.org/2000/svg"
   xmlns:sodipodi="http://sodipodi.sourceforge.net/DTD/sodipodi-0.dtd"
   xmlns:inkscape="http://www.inkscape.org/namespaces/inkscape"
   width="500mm"
   height="300mm"
   viewBox="0 0 1771.6535 1062.9921"
   id="svg2"
   version="1.1"
   inkscape:version="0.91 r13725"
   sodipodi:docname="Ranger.svg">
  <defs
     id="defs4" />
  <sodipodi:namedview
     id="base"
     pagecolor="#ffffff"
     bordercolor="#666666"
     borderopacity="1.0"
     inkscape:pageopacity="0.0"
     inkscape:pageshadow="2"
     inkscape:zoom="1.979899"
     inkscape:cx="27.200907"
     inkscape:cy="992.92443"
     inkscape:document-units="mm"
     inkscape:current-layer="layer1"
     showgrid="false" />
  <metadata
     id="metadata7">
    <rdf:RDF>
      <cc:Work
         rdf:about="">
        <dc:format>image/svg+xml</dc:format>
        <dc:type
           rdf:resource="http://purl.org/dc/dcmitype/StillImage" />
        <dc:title></dc:title>
      </cc:Work>
    </rdf:RDF>
  </metadata>
  <g
     inkscape:label="Layer 1"
     inkscape:groupmode="layer"
     id="layer1"
     transform="translate(0,10.629921)">
    <path
       style="fill:none;stroke:#000000;stroke-width:0.99921256;stroke-miterlimit:4;stroke-dasharray:none"
       d="m 61.920738,-3.0700639 c -1.42095,0.79712 -4.89133,1.74732 -4.40244,5.34512 0.0798,0.33339 0.23647,0.61848 0.5141,0.93564 l 0.11286,0.12888 0.0326,0.43975 c 0.018,0.2418 0.0485,0.69724 0.0679,1.01218 0.0682,1.11048 0.18547,2.8249696 0.56276,8.2269099 0.20964,3.00155 0.36647,5.47416 0.36647,5.47416 l -1.928,-0.43625 c -0.0104,-0.01 0.007,-0.12157 0.0396,-0.24878 0.0666,-0.26288 0.16265,-0.81783 0.20269,-1.17073 0.0384,-0.3385 0.0172,-1.37182 -0.0348,-1.68991 -0.11187,-0.685 -0.36029,-1.39171 -0.87905,-2.50077 -0.10523,-0.22495 -0.23177,-0.50889 -0.28107,-0.63101 -0.0493,-0.12212 -0.13886,-0.33247 -0.19902,-0.46744 -0.0602,-0.13497 -0.16759,-0.39278 -0.23883,-0.57274 -0.20508,-0.51801 -0.72213,-1.5412203 -0.98017,-1.9397503 -0.38016,-0.58717 -0.69158,-0.95274 -1.45324,-1.70619 -0.60652,-0.59998 -0.71845,-0.72254 -0.97468,-1.06787 -0.1592,-0.2145596 -0.39431,-0.5722396 -0.52249,-0.7947396 -0.12817,-0.22249 -0.33071,-0.54847 -0.45005,-0.72444 -0.42821,-0.63137 -0.65905,-1.19165 -0.89095,-2.16267 -0.0649,-0.27147 -0.0655,-0.28398 -0.0587,-0.9093199 0.008,-0.70550001 -0.0102,-0.91069001 -0.11408,-1.31269001 -0.0831,-0.32177004 -0.30884,-0.87536004 -0.4473,-1.09739004 -0.16534,-0.26512005 -0.5486,-0.74229005 -0.71603,-0.89136005 -0.43782,-0.38986 -0.83185,-0.63379 -1.25559,-0.77724 -0.45935,-0.15551 -0.86822,-0.17146 -1.42702,-0.0558 -0.48864,0.1011 -0.76757,0.25242 -0.98962,0.53698 -0.0644,0.0826 -0.18573,0.202 -0.26948,0.26537 -0.21069,0.15946 -0.3867,0.31747 -0.89857,0.80661 -0.33161,0.31688005 -0.5245,0.52544005 -0.77306,0.83613005 -0.209,0.26123004 -0.53863,0.62670004 -0.89339,0.99042004 -0.91123,0.93420001 -1.25653,1.24159991 -2.34252,2.08536991 -0.36414,0.28294 -0.64634,0.52175 -0.98947,0.83704 -0.64355,0.59132 -1.11257,0.97164 -1.84488,1.49605 -0.92598,0.66309 -1.32087,1.0235596 -3.22173,2.9424996 -1.03308,1.04291 -1.12727,1.14207 -1.38476,1.45603 -0.10764,0.13124 -0.34618,0.40307 -0.53012,0.6040803 -0.18394,0.20102 -0.43395,0.49456 -0.55559,0.65232 -0.99446,1.28982 -1.70961,2.98633 -1.80569,4.2838 l -0.016,0.21637 -0.41421,-0.40322 c -0.53642,-0.52222 -0.74328,-0.64635 -1.07991,-0.64806 -0.29429,-0.001 -0.51854,0.0898 -0.82125,0.33399 -0.0768,0.062 -0.14902,0.10928 -0.16028,0.10515 -0.0113,-0.004 -0.37715,-0.3033 -0.81317,-0.6648 -0.43602,-0.36148 -0.90875,-0.74901 -1.05048,-0.86123 -0.35435,-0.28061 -0.42678,-0.35353 -0.50693,-0.51066 -0.0754,-0.14778 -0.2564,-0.38194 -0.53652,-0.6937 -0.0982,-0.10926 -0.24334,-0.28274 -0.32256,-0.38558 -0.0792,-0.10283 -0.20477,-0.26147 -0.27909,-0.35255 -0.6391,-0.78318 -0.79887,-0.98111 -0.93151,-1.15491 -0.11014,-0.1443203 -0.2478,-0.3121403 -0.46973,-0.5725803 -0.0959,-0.1126 -0.33744,-0.40582 -0.61567,-0.74757 -0.14234,-0.17485 -0.24527,-0.2788 -0.59905,-0.60484 -0.43354,-0.39956 -0.73225,-0.65299 -1.17034,-0.99271 -0.48072,-0.37276 -0.74157,-0.58243 -1.38248,-1.11108 -0.23037,-0.1900196 -0.4571,-0.3618696 -0.50374,-0.3819196 -0.0466,-0.0201 -0.10584,-0.0456 -0.13161,-0.0569 -0.12942,-0.0566 -0.19786,-0.0633 -0.24401,-0.0239 -0.0454,0.0388 -0.0453,0.0405 0.01,0.1794 0.0306,0.0771 0.11038,0.2821796 0.17737,0.4557196 0.067,0.17354 0.17412,0.43118 0.23806,0.57258 0.34757,0.7685 0.66557,1.59373 0.68964,1.78958 0.0285,0.23216 -0.19338,0.48669 -0.48848,0.56011 -0.12616,0.0314 -0.26801,0.0132 -0.74973,-0.0968 -0.62501,-0.14266 -1.06535,-0.21785 -1.41527,-0.24148 -0.21395,-0.0144 -0.58124,-0.11637 -0.79411,-0.22048 -0.32268,-0.15782 -0.39283,-0.17689 -0.45493,-0.12386 -0.0454,0.0388 -0.0452,0.0404 0.01,0.17924 0.0306,0.0771 0.11038,0.28234 0.17736,0.45588 0.067,0.17354 0.17412,0.43118 0.23807,0.57258 0.34756,0.7685003 0.66557,1.5937203 0.68964,1.7895703 0.0285,0.23216 -0.19354,0.48669 -0.48864,0.56011 -0.12615,0.0314 -0.268,0.013 -0.74973,-0.0969 -0.62464,-0.14257 -1.06544,-0.21776 -1.41466,-0.24132 -0.11862,-0.008 -0.2919,-0.0441 -0.46453,-0.0968 -0.17477,-0.0533 -0.29697,-0.0787 -0.3343,-0.0694 -0.0324,0.008 -0.071,0.005 -0.0859,-0.007 -0.0149,-0.0121 -0.0665,-0.0327 -0.11469,-0.0458 -0.0719,-0.0196 -0.0959,-0.0169 -0.13329,0.0151 -0.0451,0.0385 -0.0449,0.0406 0.0101,0.17925 0.0306,0.0771 0.11053,0.28218 0.17751,0.45572 0.067,0.17354 0.17413,0.43118 0.23807,0.57258 0.34757,0.7685 0.66557,1.59372 0.68964,1.78957 0.0285,0.23216 -0.19353,0.48669 -0.48864,0.56011 -0.12615,0.0314 -0.268,0.0132 -0.74972,-0.0968 -0.62465,-0.14257 -1.06545,-0.21792 -1.41466,-0.24148 -0.11832,-0.008 -0.29177,-0.0439 -0.46286,-0.0962 -0.2672,-0.0815 -0.36694,-0.0878 -0.36694,-0.023 0,0.0808 0.82696,0.81708 1.59462,1.41982 0.88475,0.69468 1.21867,0.95465 1.55604,1.21091 0.19325,0.14679 0.42513,0.32391 0.51532,0.39364 0.17491,0.13521 0.24109,0.16825 0.73676,0.36884 0.28823,0.11664 1.22979,0.57101 1.43007,0.69005 0.0451,0.0268 0.16111,0.0914 0.25773,0.14364 0.0966,0.0522 0.2231,0.12401 0.28108,0.15946 0.058,0.0355 0.24245,0.14303 0.40994,0.23905 0.16749,0.096 0.34458,0.20173 0.39347,0.23493 0.0489,0.0332 0.0935,0.0603 0.0991,0.0603 0.006,0 0.0657,0.0355 0.13359,0.0787 0.22905,0.14571 0.51706,0.27038 0.675,0.2923 0.0832,0.0115 0.1592,0.0163 0.16898,0.0105 0.0414,-0.0244 0.12794,0.0339 0.44425,0.2996 0.27938,0.23466 1.73659,1.4477 2.29585,1.91116 0.0867,0.0719 0.15815,0.14305 0.15815,0.15809 2.4e-4,0.0151 -0.0367,0.10017 -0.082,0.18929 -0.13188,0.25902 -0.31516,0.83078 -0.33124,1.03364 -0.039,0.49271 0.22518,0.87372 0.80951,1.16753 0.37642,0.18927 0.95493,0.62348 1.50372,1.12843 0.39864,0.3668 1.03875,0.97816 1.04743,1.00046 0.004,0.01 -0.18057,0.16336 -0.40995,0.34069 -0.22937,0.17733 -0.42911,0.33335 -0.44379,0.34678 -0.0147,0.0134 -0.0559,0.0455 -0.0917,0.0712 -0.0358,0.0257 -0.0765,0.0576 -0.0904,0.0711 -0.014,0.0134 -0.2784,0.22136 -0.58761,0.46196 -0.62412,0.48564 -1.19315,0.93261 -1.2649,0.99362 -0.0258,0.0219 -0.17874,0.1444 -0.33978,0.27206 -0.16105,0.12767 -0.30485,0.24314 -0.31966,0.2567 -0.0148,0.0136 -0.0668,0.0562 -0.11545,0.0948 -0.11133,0.0882 -0.65009,0.53268 -0.66585,0.5493 -0.006,0.007 -0.0696,0.0594 -0.14045,0.11686 -0.0709,0.0575 -0.13421,0.11016 -0.14062,0.11702 -0.006,0.007 -0.0747,0.0649 -0.15174,0.12888 -0.15658,0.13006 -0.28158,0.23837 -0.33781,0.29275 -0.0206,0.0199 -0.11587,0.10412 -0.21168,0.18701 -0.32684,0.28279 -0.45849,0.40738 -0.96201,0.91038 -0.74595,0.74517 -1.01008,1.06295 -1.51776,1.82518 -0.59843,0.89851 -1.01178,1.79608 -1.20176,2.60972 -0.10266,0.4397 -0.14253,1.13609 -0.0859,1.50153 0.15399,0.99311 0.57941,1.47935 1.67423,1.91389 0.35703,0.1417 0.82741,0.28997 1.08433,0.3416 0.0193,0.004 0.0984,0.023 0.17568,0.0426 0.14243,0.036 0.44752,0.0978 0.59738,0.12097 0.0451,0.007 0.13475,0.0227 0.19917,0.0352 0.38033,0.0733 1.48025,0.20589 2.03796,0.24574 0.10307,0.007 0.22954,0.0177 0.28107,0.0228 0.0515,0.005 0.23071,0.0162 0.3982,0.0247 0.16749,0.008 0.35726,0.0186 0.42168,0.0224 0.15172,0.009 1.189,0.0372 1.63366,0.0444 0.18994,0.003 0.35159,0.0118 0.35901,0.0192 0.007,0.007 -0.0542,0.11702 -0.13695,0.24361 -0.19063,0.29152 -0.45588,0.74201 -0.56337,0.95694 -0.0456,0.0912 -0.1165,0.22266 -0.15769,0.29215 -0.0412,0.0695 -0.12769,0.2209 -0.19216,0.33659 -0.27675,0.4966 -0.75458,1.07818 -1.12764,1.37249 -0.61763,0.48726 -1.19974,0.8307 -1.92312,1.13436 -0.59593,0.25016 -0.89434,0.36084 -1.34603,0.49939 -0.2517,0.0772 -0.67911,0.21274 -0.94967,0.30114 -1.56658,0.5118 -3.17282,0.71821 -3.91197,0.50274 -0.28251,-0.0823 -0.40385,-0.13999 -0.71694,-0.34085 -0.39602,-0.25407 -0.62614,-0.30643 -0.93136,-0.21165 -0.26716,0.083 -0.45776,0.27164 -0.56718,0.56132 -0.0405,0.10732 -0.0479,0.16922 -0.0406,0.34222 0.008,0.19186 0.0185,0.2313 0.11332,0.43228 0.15754,0.33406 0.26434,0.51667 0.51166,0.87417 0.25299,0.3657 0.469,0.62123 0.86716,1.02602 0.3724,0.37862 0.58352,0.55443 1.81591,1.51188 1.11074,0.86297 1.96535,1.27925 3.09117,1.50579 0.22076,0.0444 0.4779,0.0879 0.5716,0.0966 0.0937,0.009 0.17451,0.0224 0.1795,0.0304 0.005,0.008 -0.0171,0.0775 -0.0488,0.15459 -0.1136,0.27605 -0.35736,1.03512 -0.45035,1.40232 -0.24687,0.97476 -0.35413,1.97532 -0.35413,3.30997 -1.6e-4,0.79887 0.0478,1.04531 0.30868,1.58568 0.16262,0.3368 0.33251,0.50675 0.675,0.67544 0.38788,0.19105 0.61838,0.22278 1.88575,0.25959 1.03251,0.0303 13.15635,0.0307 14.13715,7.8e-4 1.0871,-0.0332 1.29895,-0.0629 1.65623,-0.23266 0.79903,-0.37955 1.30359,-1.05376 2.50158,-3.34314 0.23619,-0.45136 0.8268,-1.56244 0.84063,-1.58142 0.002,-0.002 0.15041,-0.0158 0.33079,-0.0304 0.93475,-0.076 2.01947,-0.34761 3.05686,-0.76522 1.67981,-0.67621 2.86363,-1.31689 4.38993,-2.37615 0.29784,-0.20671 0.40088,-0.26721 0.41604,-0.24407 0.0111,0.0169 0.16725,0.27437 0.34695,0.57213 0.48948,0.81104 1.31719,2.31115 2.31934,4.20315 1.35343,2.55519 1.7927,3.1536 2.6123,3.55845 0.45613,0.22532 0.67885,0.24044 3.84182,0.26126 5.58389,0.0368 11.14367,0.0165 12.30995,-0.0447 1.10881,-0.0582 1.5932,-0.16028 1.87661,-0.39562 0.0945,-0.0785 0.33217,-0.41422 0.42946,-0.60667 0.1317,-0.26051 0.13631,-0.31694 0.14732,-1.79109 0.0126,-1.68326 -0.011,-2.05343 -0.16882,-2.65918 -0.0904,-0.34701 -0.30989,-1.02497 -0.47445,-1.46562 -0.58627,-1.56976 -1.54016,-3.2649 -3.06449,-5.44601 -0.49923,-0.71433 -0.50486,-0.72328 -0.48025,-0.76917 0.0239,-0.0445 0.36472,-0.4649 0.64785,-0.799 0.0916,-0.10806 0.28488,-0.32262 0.42962,-0.47688 1.14169,-1.21681 2.2068,-2.78942 3.26107,-4.81468 0.59272,-1.13865 0.68998,-1.35484 0.97239,-2.16191 0.5534,-1.58154 0.91671,-2.96584 1.14091,-4.34711 0.23998,-1.47857 0.44506,-3.60062 0.45691,-4.72841 0.003,-0.24178 0.0145,-0.59931 0.0265,-0.79459 0.0295,-0.47821 0.029,-2.29121 -9.1e-4,-3.04292 -0.0429,-1.08042 -0.14429,-2.33505 -0.25484,-3.15522 -0.0121,-0.09 -0.0452,-0.34763 -0.0734,-0.57259 -0.053,-0.42339 -0.19132,-1.29753 -0.29189,-1.84496 -0.0317,-0.17277 -0.0692,-0.39883 -0.0834,-0.50244 -0.041,-0.29914 -0.33803,-1.78368 -0.39545,-1.97642 -0.0134,-0.045 -0.10448,-0.40782 -0.20238,-0.80631 -0.2989,-1.21666 -0.68798,-2.4972 -1.00273,-3.30007 -0.27496,-0.70135 -0.60978,-1.47362 -0.8542,-1.97034 -0.54007,-1.09757 -0.79295,-1.5584003 -1.1072,-2.0176603 -0.0631,-0.0922 -0.1251,-0.1834 -0.13787,-0.20268 -0.14665,-0.22134 -1.00663,-1.40103 -1.21915,-1.67241 -0.66166,-0.84494 -1.09298,-1.3384196 -1.75322,-2.0062496 -0.52413,-0.53014 -0.95657,-0.92647 -1.39652,-1.27998 -0.94557,-0.75979 -2.33146,-2.1455799 -2.9925,-2.9920999 -0.21364,-0.27358001 -0.39609,-0.56405001 -0.5658,-0.90095001 -0.37658,-0.74761004 -0.50496,-1.19068009 -0.60637,-2.09420009 z"
       id="path8162"
       inkscape:connector-curvature="0" />
    <path
       style="fill:none;stroke:#00ff00;stroke-width:0.99921256;stroke-miterlimit:4;stroke-dasharray:none"
       d="m 63.218168,10.659866 c 0.002,0 0.004,0.002 0.007,0.005 0.003,0.003 0.0772,0.0893 0.16592,0.19092 0.2111,0.24192 0.51289,0.62225 0.75657,0.95347 0.10766,0.14634 0.21515,0.2911 0.23885,0.32165 0.0699,0.0901 0.51122,0.75548 0.64449,0.97176 0.16906,0.27436 0.37,0.62595 0.52383,0.91653 0.18887,0.3568 0.61413,1.20191 0.66955,1.33048 0.0263,0.061 0.0613,0.14078 0.0777,0.17736 0.063,0.14069 0.0897,0.20645 0.16842,0.41393 0.30018,0.79126 0.69085,2.14582 0.91663,3.1781 0.0329,0.1504 0.0633,0.28842 0.0674,0.30671 0.0102,0.0447 -0.002,0.0429 -0.1845,-0.0271 -0.30074,-0.1156 -0.97488,-0.32585 -1.3032,-0.40647 -0.008,-0.002 -0.20019,-0.0507 -0.42696,-0.10821 -0.22678,-0.0575 -0.5151,-0.12802 -0.64063,-0.15684 -0.12554,-0.0288 -0.23817,-0.0551 -0.25032,-0.0583 -0.0122,-0.003 -0.21304,-0.0487 -0.44641,-0.10099 -0.23337,-0.0523 -0.43056,-0.10142 -0.43818,-0.10907 -0.0164,-0.0165 -0.0152,-7.8e-4 -0.1466,-1.89702 -0.0566,-0.81708 -0.11611,-1.67185 -0.13214,-1.89949 -0.016,-0.22765 -0.079,-1.12898 -0.14,-2.00298 -0.061,-0.87399 -0.11872,-1.67698 -0.12827,-1.78444 -0.013,-0.14568 -0.0125,-0.21737 10e-4,-0.2153 z"
       id="path8160"
       inkscape:connector-curvature="0" />
    <path
       style="fill:none;stroke:#00ff00;stroke-width:0.99921256;stroke-miterlimit:4;stroke-dasharray:none"
       d="m 19.293228,14.614626 c 0.003,-0.003 0.0459,0.0119 0.0949,0.0335 0.049,0.0216 0.18199,0.0769 0.29546,0.12278 0.18734,0.0758 0.79938,0.37083 0.92956,0.44816 0.0293,0.0174 0.10466,0.0595 0.16747,0.0934 0.0628,0.0339 0.14507,0.0805 0.18275,0.10351 0.0377,0.023 0.15757,0.093 0.26643,0.15534 0.10887,0.0624 0.22396,0.13104 0.25574,0.15262 0.0318,0.0216 0.0607,0.0392 0.0644,0.0392 0.004,0 0.0427,0.023 0.0868,0.0511 0.14943,0.095 0.33598,0.17569 0.43871,0.18973 0.0541,0.007 0.10626,0.0103 0.11597,0.007 0.0308,-0.0117 0.0984,0.0356 0.31739,0.22218 0.11724,0.0999 0.45085,0.37841 0.74146,0.61896 0.29062,0.24053 0.52865,0.44457 0.52916,0.45348 0.001,0.0316 -0.43709,0.67793 -0.68943,1.01629 -0.0747,0.1002 -0.14354,0.18365 -0.15296,0.18549 -0.009,0.002 -0.0514,-0.026 -0.0933,-0.062 -0.14233,-0.12244 -1.06519,-0.88314 -1.21814,-1.00409 -0.22637,-0.17901 -0.27986,-0.23277 -0.32949,-0.33082 -0.0488,-0.0963 -0.16563,-0.24747 -0.3487,-0.45109 -0.0638,-0.071 -0.1582,-0.18368 -0.20969,-0.25049 -0.0515,-0.0668 -0.13314,-0.16986 -0.18144,-0.22902 -0.41542,-0.50877 -0.5192,-0.63734 -0.60542,-0.75024 -0.0704,-0.0921 -0.14876,-0.18792 -0.30495,-0.37207 -0.2416,-0.28487 -0.36083,-0.43442 -0.35273,-0.4425 z"
       id="path8158"
       inkscape:connector-curvature="0" />
    <path
       style="fill:none;stroke:#00ff00;stroke-width:0.99921256;stroke-miterlimit:4;stroke-dasharray:none"
       d="m 67.652028,31.731616 c 0.004,0.004 -0.0138,0.1671 -0.0533,0.47923 -0.006,0.0475 -0.0159,0.11478 -0.0219,0.14959 -0.006,0.0348 -0.0213,0.13836 -0.034,0.23014 -0.0127,0.0918 -0.0275,0.18507 -0.033,0.20722 -0.006,0.0222 -0.0136,0.0688 -0.0178,0.10361 -0.009,0.0728 -0.0716,0.40272 -0.10706,0.5639 -0.0132,0.0601 -0.0285,0.13132 -0.0339,0.15829 -0.0223,0.11114 -0.086,0.32908 -0.20256,0.69337 -0.2966,0.92678 -0.50706,1.46432 -0.8382,2.14069 -0.16446,0.33592 -0.39771,0.77277 -0.54387,1.01855 -0.0452,0.076 -0.0938,0.15566 -0.10795,0.17713 l -0.0257,0.0391 -0.0719,-0.11385 c -0.0395,-0.0626 -0.0858,-0.13835 -0.10281,-0.16828 -0.0353,-0.0622 -0.0229,0.0817 -0.13542,-1.56836 -0.0341,-0.50006 -0.0747,-1.093 -0.0901,-1.31771 -0.0154,-0.22471 -0.0433,-0.63369 -0.0621,-0.90879 l -0.0343,-0.50024 0.0393,-0.058 c 0.0216,-0.0319 0.0713,-0.0969 0.1104,-0.14434 0.0623,-0.0757 0.0814,-0.0907 0.15493,-0.12295 0.0461,-0.0202 0.10158,-0.0446 0.12322,-0.0542 0.0217,-0.01 0.0772,-0.0337 0.12362,-0.0537 0.0464,-0.02 0.10708,-0.0468 0.13491,-0.0594 0.0278,-0.0126 0.0683,-0.0307 0.09,-0.0402 0.0473,-0.0207 0.10785,-0.0484 0.19113,-0.0873 0.034,-0.0159 0.0872,-0.0403 0.11809,-0.0542 0.0309,-0.0139 0.0879,-0.0403 0.12657,-0.0587 0.0386,-0.0183 0.10446,-0.0494 0.1462,-0.0692 0.25014,-0.11821 0.80065,-0.39622 1.02458,-0.5174 0.0703,-0.0381 0.13021,-0.0668 0.13298,-0.064 z"
       id="path8080"
       inkscape:connector-curvature="0" />
  </g>
</svg>
